<svg xmlns="http://www.w3.org/2000/svg" viewBox="0 0 96 96">
  <defs>
    <linearGradient id="coin" x1="14" x2="82" y1="12" y2="86" gradientUnits="userSpaceOnUse">
      <stop offset="0" stop-color="#f7c873"/>
      <stop offset=".45" stop-color="#b7791f"/>
      <stop offset="1" stop-color="#4a1f0a"/>
    </linearGradient>
    <linearGradient id="gem" x1="29" x2="67" y1="24" y2="72" gradientUnits="userSpaceOnUse">
      <stop offset="0" stop-color="#67e8f9"/>
      <stop offset=".52" stop-color="#0891b2"/>
      <stop offset="1" stop-color="#0f172a"/>
    </linearGradient>
    <radialGradient id="core" cx="48" cy="42" r="42" gradientUnits="userSpaceOnUse">
      <stop offset="0" stop-color="#1f2937"/>
      <stop offset=".72" stop-color="#070b14"/>
      <stop offset="1" stop-color="#020617"/>
    </radialGradient>
  </defs>
  <path fill="url(#coin)" d="M48 5 77 18.5 89 48 77 77.5 48 91 19 77.5 7 48 19 18.5 48 5Z"/>
  <path fill="url(#core)" d="M48 12.5 71.5 23.5 81.5 48 71.5 72.5 48 83.5 24.5 72.5 14.5 48 24.5 23.5 48 12.5Z"/>
  <path fill="none" stroke="#fbbf24" stroke-linecap="round" stroke-width="4" d="M24 31c9-9 25-13 41-4M72 64c-9 9-25 13-41 4"/>
  <path fill="url(#gem)" stroke="#a5f3fc" stroke-opacity=".72" stroke-width="2" d="m48 21 20 13v28L48 75 28 62V34l20-13Z"/>
  <path fill="#0f172a" fill-opacity=".55" d="M48 27 62 36v20l-14 9-14-9V36l14-9Z"/>
  <path fill="#e0f2fe" d="M39 36h5v24h-5V36Zm13 0h5v24h-5V36Z"/>
  <path fill="#fbbf24" d="M45.5 24.5 48 17l2.5 7.5L58 27l-7.5 2.5L48 37l-2.5-7.5L38 27l7.5-2.5Z"/>
</svg>
